<mxfile host="app.diagrams.net" modified="2024-02-05T16:51:34.690Z" agent="Mozilla/5.0 (Windows NT 10.0; Win64; x64) AppleWebKit/537.36 (KHTML, like Gecko) Chrome/121.0.0.0 Safari/537.36" etag="h_Fw2MFqQYY4nRsStNMU" version="23.1.1" type="github">
  <diagram name="페이지-1" id="so_R4jtWS8tIzulci1xA">
    <mxGraphModel dx="596" dy="728" grid="1" gridSize="10" guides="1" tooltips="1" connect="1" arrows="1" fold="1" page="1" pageScale="1" pageWidth="827" pageHeight="1169" math="0" shadow="0">
      <root>
        <mxCell id="0" />
        <mxCell id="1" parent="0" />
        <mxCell id="xr4Yp84SexC0bQMcXBKt-27" style="edgeStyle=orthogonalEdgeStyle;rounded=0;orthogonalLoop=1;jettySize=auto;html=1;exitX=0.5;exitY=1;exitDx=0;exitDy=0;entryX=0;entryY=0.5;entryDx=0;entryDy=0;" edge="1" parent="1" source="xr4Yp84SexC0bQMcXBKt-1" target="xr4Yp84SexC0bQMcXBKt-5">
          <mxGeometry relative="1" as="geometry">
            <Array as="points">
              <mxPoint x="110" y="150" />
              <mxPoint x="110" y="310" />
            </Array>
          </mxGeometry>
        </mxCell>
        <mxCell id="xr4Yp84SexC0bQMcXBKt-28" style="edgeStyle=orthogonalEdgeStyle;rounded=0;orthogonalLoop=1;jettySize=auto;html=1;exitX=0.5;exitY=1;exitDx=0;exitDy=0;entryX=0;entryY=0.5;entryDx=0;entryDy=0;" edge="1" parent="1" source="xr4Yp84SexC0bQMcXBKt-1" target="xr4Yp84SexC0bQMcXBKt-4">
          <mxGeometry relative="1" as="geometry">
            <Array as="points">
              <mxPoint x="110" y="150" />
              <mxPoint x="110" y="250" />
            </Array>
          </mxGeometry>
        </mxCell>
        <mxCell id="xr4Yp84SexC0bQMcXBKt-29" style="edgeStyle=orthogonalEdgeStyle;rounded=0;orthogonalLoop=1;jettySize=auto;html=1;exitX=0.5;exitY=1;exitDx=0;exitDy=0;entryX=0;entryY=0.5;entryDx=0;entryDy=0;" edge="1" parent="1" source="xr4Yp84SexC0bQMcXBKt-1" target="xr4Yp84SexC0bQMcXBKt-3">
          <mxGeometry relative="1" as="geometry">
            <Array as="points">
              <mxPoint x="110" y="150" />
              <mxPoint x="110" y="190" />
            </Array>
          </mxGeometry>
        </mxCell>
        <mxCell id="xr4Yp84SexC0bQMcXBKt-1" value="회원&lt;br&gt;" style="rounded=0;whiteSpace=wrap;html=1;" vertex="1" parent="1">
          <mxGeometry x="80" y="100" width="70" height="50" as="geometry" />
        </mxCell>
        <mxCell id="xr4Yp84SexC0bQMcXBKt-3" value="회원가입" style="rounded=0;whiteSpace=wrap;html=1;" vertex="1" parent="1">
          <mxGeometry x="130" y="170" width="110" height="40" as="geometry" />
        </mxCell>
        <mxCell id="xr4Yp84SexC0bQMcXBKt-4" value="로그인 로그아웃" style="rounded=0;whiteSpace=wrap;html=1;" vertex="1" parent="1">
          <mxGeometry x="130" y="230" width="110" height="40" as="geometry" />
        </mxCell>
        <mxCell id="xr4Yp84SexC0bQMcXBKt-20" style="edgeStyle=orthogonalEdgeStyle;rounded=0;orthogonalLoop=1;jettySize=auto;html=1;exitX=1;exitY=0.5;exitDx=0;exitDy=0;entryX=0;entryY=0.5;entryDx=0;entryDy=0;" edge="1" parent="1" source="xr4Yp84SexC0bQMcXBKt-5" target="xr4Yp84SexC0bQMcXBKt-8">
          <mxGeometry relative="1" as="geometry" />
        </mxCell>
        <mxCell id="xr4Yp84SexC0bQMcXBKt-21" style="edgeStyle=orthogonalEdgeStyle;rounded=0;orthogonalLoop=1;jettySize=auto;html=1;exitX=1;exitY=0.5;exitDx=0;exitDy=0;entryX=0;entryY=0.5;entryDx=0;entryDy=0;" edge="1" parent="1" source="xr4Yp84SexC0bQMcXBKt-5" target="xr4Yp84SexC0bQMcXBKt-7">
          <mxGeometry relative="1" as="geometry">
            <Array as="points">
              <mxPoint x="250" y="310" />
              <mxPoint x="250" y="370" />
            </Array>
          </mxGeometry>
        </mxCell>
        <mxCell id="xr4Yp84SexC0bQMcXBKt-22" style="edgeStyle=orthogonalEdgeStyle;rounded=0;orthogonalLoop=1;jettySize=auto;html=1;exitX=1;exitY=0.5;exitDx=0;exitDy=0;entryX=0;entryY=0.5;entryDx=0;entryDy=0;" edge="1" parent="1" source="xr4Yp84SexC0bQMcXBKt-5" target="xr4Yp84SexC0bQMcXBKt-6">
          <mxGeometry relative="1" as="geometry">
            <Array as="points">
              <mxPoint x="250" y="310" />
              <mxPoint x="250" y="430" />
            </Array>
          </mxGeometry>
        </mxCell>
        <mxCell id="xr4Yp84SexC0bQMcXBKt-23" style="edgeStyle=orthogonalEdgeStyle;rounded=0;orthogonalLoop=1;jettySize=auto;html=1;exitX=1;exitY=0.5;exitDx=0;exitDy=0;entryX=0;entryY=0.5;entryDx=0;entryDy=0;" edge="1" parent="1" source="xr4Yp84SexC0bQMcXBKt-5" target="xr4Yp84SexC0bQMcXBKt-11">
          <mxGeometry relative="1" as="geometry">
            <Array as="points">
              <mxPoint x="250" y="310" />
              <mxPoint x="250" y="490" />
            </Array>
          </mxGeometry>
        </mxCell>
        <mxCell id="xr4Yp84SexC0bQMcXBKt-24" style="edgeStyle=orthogonalEdgeStyle;rounded=0;orthogonalLoop=1;jettySize=auto;html=1;exitX=1;exitY=0.5;exitDx=0;exitDy=0;entryX=0;entryY=0.5;entryDx=0;entryDy=0;" edge="1" parent="1" source="xr4Yp84SexC0bQMcXBKt-5" target="xr4Yp84SexC0bQMcXBKt-14">
          <mxGeometry relative="1" as="geometry">
            <Array as="points">
              <mxPoint x="250" y="310" />
              <mxPoint x="250" y="550" />
            </Array>
          </mxGeometry>
        </mxCell>
        <mxCell id="xr4Yp84SexC0bQMcXBKt-25" style="edgeStyle=orthogonalEdgeStyle;rounded=0;orthogonalLoop=1;jettySize=auto;html=1;exitX=1;exitY=0.5;exitDx=0;exitDy=0;entryX=0;entryY=0.5;entryDx=0;entryDy=0;" edge="1" parent="1" source="xr4Yp84SexC0bQMcXBKt-5" target="xr4Yp84SexC0bQMcXBKt-15">
          <mxGeometry relative="1" as="geometry">
            <Array as="points">
              <mxPoint x="250" y="310" />
              <mxPoint x="250" y="610" />
            </Array>
          </mxGeometry>
        </mxCell>
        <mxCell id="xr4Yp84SexC0bQMcXBKt-26" style="edgeStyle=orthogonalEdgeStyle;rounded=0;orthogonalLoop=1;jettySize=auto;html=1;exitX=1;exitY=0.5;exitDx=0;exitDy=0;entryX=0;entryY=0.5;entryDx=0;entryDy=0;" edge="1" parent="1" source="xr4Yp84SexC0bQMcXBKt-5" target="xr4Yp84SexC0bQMcXBKt-13">
          <mxGeometry relative="1" as="geometry">
            <Array as="points">
              <mxPoint x="250" y="310" />
              <mxPoint x="250" y="670" />
            </Array>
          </mxGeometry>
        </mxCell>
        <mxCell id="xr4Yp84SexC0bQMcXBKt-74" style="edgeStyle=orthogonalEdgeStyle;rounded=0;orthogonalLoop=1;jettySize=auto;html=1;exitX=1;exitY=0.5;exitDx=0;exitDy=0;entryX=0;entryY=0.5;entryDx=0;entryDy=0;" edge="1" parent="1" source="xr4Yp84SexC0bQMcXBKt-5" target="xr4Yp84SexC0bQMcXBKt-73">
          <mxGeometry relative="1" as="geometry">
            <Array as="points">
              <mxPoint x="250" y="310" />
              <mxPoint x="250" y="730" />
            </Array>
          </mxGeometry>
        </mxCell>
        <mxCell id="xr4Yp84SexC0bQMcXBKt-5" value="마이페이지" style="rounded=0;whiteSpace=wrap;html=1;" vertex="1" parent="1">
          <mxGeometry x="130" y="290" width="110" height="40" as="geometry" />
        </mxCell>
        <mxCell id="xr4Yp84SexC0bQMcXBKt-6" value="쿠폰, 응모한 이벤트" style="rounded=0;whiteSpace=wrap;html=1;" vertex="1" parent="1">
          <mxGeometry x="270" y="410" width="110" height="40" as="geometry" />
        </mxCell>
        <mxCell id="xr4Yp84SexC0bQMcXBKt-7" value="찜목록" style="rounded=0;whiteSpace=wrap;html=1;" vertex="1" parent="1">
          <mxGeometry x="270" y="350" width="110" height="40" as="geometry" />
        </mxCell>
        <mxCell id="xr4Yp84SexC0bQMcXBKt-8" value="배송지 관리" style="rounded=0;whiteSpace=wrap;html=1;" vertex="1" parent="1">
          <mxGeometry x="270" y="290" width="110" height="40" as="geometry" />
        </mxCell>
        <mxCell id="xr4Yp84SexC0bQMcXBKt-11" value="최근 본 상품" style="rounded=0;whiteSpace=wrap;html=1;" vertex="1" parent="1">
          <mxGeometry x="270" y="470" width="110" height="40" as="geometry" />
        </mxCell>
        <mxCell id="xr4Yp84SexC0bQMcXBKt-13" value="결제내격 조회/관리" style="rounded=0;whiteSpace=wrap;html=1;" vertex="1" parent="1">
          <mxGeometry x="270" y="650" width="110" height="40" as="geometry" />
        </mxCell>
        <mxCell id="xr4Yp84SexC0bQMcXBKt-14" value="장바구니" style="rounded=0;whiteSpace=wrap;html=1;" vertex="1" parent="1">
          <mxGeometry x="270" y="530" width="110" height="40" as="geometry" />
        </mxCell>
        <mxCell id="xr4Yp84SexC0bQMcXBKt-15" value="point" style="rounded=0;whiteSpace=wrap;html=1;" vertex="1" parent="1">
          <mxGeometry x="270" y="590" width="110" height="40" as="geometry" />
        </mxCell>
        <mxCell id="xr4Yp84SexC0bQMcXBKt-31" style="edgeStyle=orthogonalEdgeStyle;rounded=0;orthogonalLoop=1;jettySize=auto;html=1;exitX=0.5;exitY=1;exitDx=0;exitDy=0;entryX=0;entryY=0.5;entryDx=0;entryDy=0;" edge="1" parent="1" source="xr4Yp84SexC0bQMcXBKt-33" target="xr4Yp84SexC0bQMcXBKt-35">
          <mxGeometry relative="1" as="geometry">
            <Array as="points">
              <mxPoint x="444" y="150" />
              <mxPoint x="444" y="490" />
            </Array>
          </mxGeometry>
        </mxCell>
        <mxCell id="xr4Yp84SexC0bQMcXBKt-32" style="edgeStyle=orthogonalEdgeStyle;rounded=0;orthogonalLoop=1;jettySize=auto;html=1;exitX=0.5;exitY=1;exitDx=0;exitDy=0;entryX=0;entryY=0.5;entryDx=0;entryDy=0;" edge="1" parent="1" source="xr4Yp84SexC0bQMcXBKt-33" target="xr4Yp84SexC0bQMcXBKt-34">
          <mxGeometry relative="1" as="geometry">
            <Array as="points">
              <mxPoint x="444" y="150" />
              <mxPoint x="444" y="190" />
            </Array>
          </mxGeometry>
        </mxCell>
        <mxCell id="xr4Yp84SexC0bQMcXBKt-33" value="커뮤니티" style="rounded=0;whiteSpace=wrap;html=1;" vertex="1" parent="1">
          <mxGeometry x="414" y="100" width="70" height="50" as="geometry" />
        </mxCell>
        <mxCell id="xr4Yp84SexC0bQMcXBKt-34" value="게시판" style="rounded=0;whiteSpace=wrap;html=1;" vertex="1" parent="1">
          <mxGeometry x="464" y="170" width="110" height="40" as="geometry" />
        </mxCell>
        <mxCell id="xr4Yp84SexC0bQMcXBKt-35" value="샵 공지사항" style="rounded=0;whiteSpace=wrap;html=1;" vertex="1" parent="1">
          <mxGeometry x="464" y="470" width="110" height="40" as="geometry" />
        </mxCell>
        <mxCell id="xr4Yp84SexC0bQMcXBKt-36" style="edgeStyle=orthogonalEdgeStyle;rounded=0;orthogonalLoop=1;jettySize=auto;html=1;exitX=1;exitY=0.5;exitDx=0;exitDy=0;entryX=0;entryY=0.5;entryDx=0;entryDy=0;" edge="1" parent="1" target="xr4Yp84SexC0bQMcXBKt-46">
          <mxGeometry relative="1" as="geometry">
            <mxPoint x="574" y="190" as="sourcePoint" />
          </mxGeometry>
        </mxCell>
        <mxCell id="xr4Yp84SexC0bQMcXBKt-37" style="edgeStyle=orthogonalEdgeStyle;rounded=0;orthogonalLoop=1;jettySize=auto;html=1;exitX=1;exitY=0.5;exitDx=0;exitDy=0;entryX=0;entryY=0.5;entryDx=0;entryDy=0;" edge="1" parent="1" target="xr4Yp84SexC0bQMcXBKt-45">
          <mxGeometry relative="1" as="geometry">
            <Array as="points">
              <mxPoint x="584" y="190" />
              <mxPoint x="584" y="250" />
            </Array>
            <mxPoint x="574" y="190" as="sourcePoint" />
          </mxGeometry>
        </mxCell>
        <mxCell id="xr4Yp84SexC0bQMcXBKt-38" style="edgeStyle=orthogonalEdgeStyle;rounded=0;orthogonalLoop=1;jettySize=auto;html=1;exitX=1;exitY=0.5;exitDx=0;exitDy=0;entryX=0;entryY=0.5;entryDx=0;entryDy=0;" edge="1" parent="1" target="xr4Yp84SexC0bQMcXBKt-44">
          <mxGeometry relative="1" as="geometry">
            <Array as="points">
              <mxPoint x="584" y="190" />
              <mxPoint x="584" y="310" />
            </Array>
            <mxPoint x="574" y="190" as="sourcePoint" />
          </mxGeometry>
        </mxCell>
        <mxCell id="xr4Yp84SexC0bQMcXBKt-39" style="edgeStyle=orthogonalEdgeStyle;rounded=0;orthogonalLoop=1;jettySize=auto;html=1;exitX=1;exitY=0.5;exitDx=0;exitDy=0;entryX=0;entryY=0.5;entryDx=0;entryDy=0;" edge="1" parent="1" target="xr4Yp84SexC0bQMcXBKt-47">
          <mxGeometry relative="1" as="geometry">
            <Array as="points">
              <mxPoint x="584" y="190" />
              <mxPoint x="584" y="370" />
            </Array>
            <mxPoint x="574" y="190" as="sourcePoint" />
          </mxGeometry>
        </mxCell>
        <mxCell id="xr4Yp84SexC0bQMcXBKt-40" style="edgeStyle=orthogonalEdgeStyle;rounded=0;orthogonalLoop=1;jettySize=auto;html=1;exitX=1;exitY=0.5;exitDx=0;exitDy=0;entryX=0;entryY=0.5;entryDx=0;entryDy=0;" edge="1" parent="1" target="xr4Yp84SexC0bQMcXBKt-49">
          <mxGeometry relative="1" as="geometry">
            <Array as="points">
              <mxPoint x="584" y="190" />
              <mxPoint x="584" y="430" />
            </Array>
            <mxPoint x="574" y="190" as="sourcePoint" />
          </mxGeometry>
        </mxCell>
        <mxCell id="xr4Yp84SexC0bQMcXBKt-44" value="상품정보공유 &lt;br&gt;게시판" style="rounded=0;whiteSpace=wrap;html=1;" vertex="1" parent="1">
          <mxGeometry x="604" y="290" width="110" height="40" as="geometry" />
        </mxCell>
        <mxCell id="xr4Yp84SexC0bQMcXBKt-45" value="자유게시판" style="rounded=0;whiteSpace=wrap;html=1;" vertex="1" parent="1">
          <mxGeometry x="604" y="230" width="110" height="40" as="geometry" />
        </mxCell>
        <mxCell id="xr4Yp84SexC0bQMcXBKt-46" value="리뷰 게시판" style="rounded=0;whiteSpace=wrap;html=1;" vertex="1" parent="1">
          <mxGeometry x="604" y="170" width="110" height="40" as="geometry" />
        </mxCell>
        <mxCell id="xr4Yp84SexC0bQMcXBKt-47" value="게시판 공지사항" style="rounded=0;whiteSpace=wrap;html=1;" vertex="1" parent="1">
          <mxGeometry x="604" y="350" width="110" height="40" as="geometry" />
        </mxCell>
        <mxCell id="xr4Yp84SexC0bQMcXBKt-49" value="QnA" style="rounded=0;whiteSpace=wrap;html=1;" vertex="1" parent="1">
          <mxGeometry x="604" y="410" width="110" height="40" as="geometry" />
        </mxCell>
        <mxCell id="xr4Yp84SexC0bQMcXBKt-51" value="* 게시판 공지시항은 게시판에 대한 공지사항을 말한다.&lt;br&gt;* 샵 공지사항은 쇼핑몰 전체에 대한 공지사항을 말한다." style="text;html=1;strokeColor=none;fillColor=none;align=left;verticalAlign=top;whiteSpace=wrap;rounded=0;" vertex="1" parent="1">
          <mxGeometry x="440" y="540" width="320" height="60" as="geometry" />
        </mxCell>
        <mxCell id="xr4Yp84SexC0bQMcXBKt-52" style="edgeStyle=orthogonalEdgeStyle;rounded=0;orthogonalLoop=1;jettySize=auto;html=1;exitX=0.5;exitY=1;exitDx=0;exitDy=0;entryX=0;entryY=0.5;entryDx=0;entryDy=0;" edge="1" source="xr4Yp84SexC0bQMcXBKt-54" target="xr4Yp84SexC0bQMcXBKt-56" parent="1">
          <mxGeometry relative="1" as="geometry">
            <Array as="points">
              <mxPoint x="770" y="150" />
              <mxPoint x="770" y="490" />
            </Array>
          </mxGeometry>
        </mxCell>
        <mxCell id="xr4Yp84SexC0bQMcXBKt-70" style="edgeStyle=orthogonalEdgeStyle;rounded=0;orthogonalLoop=1;jettySize=auto;html=1;exitX=0.5;exitY=1;exitDx=0;exitDy=0;entryX=0;entryY=0.5;entryDx=0;entryDy=0;" edge="1" parent="1" source="xr4Yp84SexC0bQMcXBKt-54" target="xr4Yp84SexC0bQMcXBKt-69">
          <mxGeometry relative="1" as="geometry">
            <Array as="points">
              <mxPoint x="770" y="150" />
              <mxPoint x="770" y="550" />
            </Array>
          </mxGeometry>
        </mxCell>
        <mxCell id="xr4Yp84SexC0bQMcXBKt-54" value="판매" style="rounded=0;whiteSpace=wrap;html=1;" vertex="1" parent="1">
          <mxGeometry x="740" y="100" width="70" height="50" as="geometry" />
        </mxCell>
        <mxCell id="xr4Yp84SexC0bQMcXBKt-56" value="배송지 선택" style="rounded=0;whiteSpace=wrap;html=1;" vertex="1" parent="1">
          <mxGeometry x="790" y="470" width="110" height="40" as="geometry" />
        </mxCell>
        <mxCell id="xr4Yp84SexC0bQMcXBKt-57" style="edgeStyle=orthogonalEdgeStyle;rounded=0;orthogonalLoop=1;jettySize=auto;html=1;exitX=1;exitY=0.5;exitDx=0;exitDy=0;entryX=0;entryY=0.5;entryDx=0;entryDy=0;" edge="1" target="xr4Yp84SexC0bQMcXBKt-64" parent="1">
          <mxGeometry relative="1" as="geometry">
            <mxPoint x="760" y="190" as="sourcePoint" />
          </mxGeometry>
        </mxCell>
        <mxCell id="xr4Yp84SexC0bQMcXBKt-58" style="edgeStyle=orthogonalEdgeStyle;rounded=0;orthogonalLoop=1;jettySize=auto;html=1;exitX=1;exitY=0.5;exitDx=0;exitDy=0;entryX=0;entryY=0.5;entryDx=0;entryDy=0;" edge="1" target="xr4Yp84SexC0bQMcXBKt-63" parent="1">
          <mxGeometry relative="1" as="geometry">
            <Array as="points">
              <mxPoint x="770" y="190" />
              <mxPoint x="770" y="250" />
            </Array>
            <mxPoint x="760" y="190" as="sourcePoint" />
          </mxGeometry>
        </mxCell>
        <mxCell id="xr4Yp84SexC0bQMcXBKt-59" style="edgeStyle=orthogonalEdgeStyle;rounded=0;orthogonalLoop=1;jettySize=auto;html=1;exitX=1;exitY=0.5;exitDx=0;exitDy=0;entryX=0;entryY=0.5;entryDx=0;entryDy=0;" edge="1" target="xr4Yp84SexC0bQMcXBKt-62" parent="1">
          <mxGeometry relative="1" as="geometry">
            <Array as="points">
              <mxPoint x="770" y="190" />
              <mxPoint x="770" y="310" />
            </Array>
            <mxPoint x="760" y="190" as="sourcePoint" />
          </mxGeometry>
        </mxCell>
        <mxCell id="xr4Yp84SexC0bQMcXBKt-60" style="edgeStyle=orthogonalEdgeStyle;rounded=0;orthogonalLoop=1;jettySize=auto;html=1;entryX=0;entryY=0.5;entryDx=0;entryDy=0;" edge="1" target="xr4Yp84SexC0bQMcXBKt-65" parent="1">
          <mxGeometry relative="1" as="geometry">
            <Array as="points">
              <mxPoint x="770" y="190" />
              <mxPoint x="770" y="370" />
            </Array>
            <mxPoint x="770" y="150" as="sourcePoint" />
          </mxGeometry>
        </mxCell>
        <mxCell id="xr4Yp84SexC0bQMcXBKt-61" style="edgeStyle=orthogonalEdgeStyle;rounded=0;orthogonalLoop=1;jettySize=auto;html=1;exitX=0.5;exitY=1;exitDx=0;exitDy=0;entryX=0;entryY=0.5;entryDx=0;entryDy=0;" edge="1" target="xr4Yp84SexC0bQMcXBKt-66" parent="1" source="xr4Yp84SexC0bQMcXBKt-54">
          <mxGeometry relative="1" as="geometry">
            <Array as="points">
              <mxPoint x="770" y="150" />
              <mxPoint x="770" y="430" />
            </Array>
            <mxPoint x="760" y="190" as="sourcePoint" />
          </mxGeometry>
        </mxCell>
        <mxCell id="xr4Yp84SexC0bQMcXBKt-62" value="비회원 회원 구매" style="rounded=0;whiteSpace=wrap;html=1;" vertex="1" parent="1">
          <mxGeometry x="790" y="290" width="110" height="40" as="geometry" />
        </mxCell>
        <mxCell id="xr4Yp84SexC0bQMcXBKt-63" value="배송관련 안내문자발송" style="rounded=0;whiteSpace=wrap;html=1;" vertex="1" parent="1">
          <mxGeometry x="790" y="230" width="110" height="40" as="geometry" />
        </mxCell>
        <mxCell id="xr4Yp84SexC0bQMcXBKt-64" value="환불 교환 취소 처리" style="rounded=0;whiteSpace=wrap;html=1;" vertex="1" parent="1">
          <mxGeometry x="790" y="170" width="110" height="40" as="geometry" />
        </mxCell>
        <mxCell id="xr4Yp84SexC0bQMcXBKt-65" value="결제수단" style="rounded=0;whiteSpace=wrap;html=1;" vertex="1" parent="1">
          <mxGeometry x="790" y="350" width="110" height="40" as="geometry" />
        </mxCell>
        <mxCell id="xr4Yp84SexC0bQMcXBKt-66" value="point 쿠폰 사용여부" style="rounded=0;whiteSpace=wrap;html=1;" vertex="1" parent="1">
          <mxGeometry x="790" y="410" width="110" height="40" as="geometry" />
        </mxCell>
        <mxCell id="xr4Yp84SexC0bQMcXBKt-67" style="edgeStyle=orthogonalEdgeStyle;rounded=0;orthogonalLoop=1;jettySize=auto;html=1;exitX=0.5;exitY=1;exitDx=0;exitDy=0;" edge="1" parent="1" source="xr4Yp84SexC0bQMcXBKt-51" target="xr4Yp84SexC0bQMcXBKt-51">
          <mxGeometry relative="1" as="geometry" />
        </mxCell>
        <mxCell id="xr4Yp84SexC0bQMcXBKt-69" value="결제확인페이지" style="rounded=0;whiteSpace=wrap;html=1;" vertex="1" parent="1">
          <mxGeometry x="790" y="530" width="110" height="40" as="geometry" />
        </mxCell>
        <mxCell id="xr4Yp84SexC0bQMcXBKt-71" style="edgeStyle=orthogonalEdgeStyle;rounded=0;orthogonalLoop=1;jettySize=auto;html=1;exitX=1;exitY=0.5;exitDx=0;exitDy=0;entryX=0;entryY=0.5;entryDx=0;entryDy=0;" edge="1" parent="1">
          <mxGeometry relative="1" as="geometry">
            <mxPoint x="760" y="250" as="sourcePoint" />
            <mxPoint x="790" y="250" as="targetPoint" />
          </mxGeometry>
        </mxCell>
        <mxCell id="xr4Yp84SexC0bQMcXBKt-73" value="결제수단" style="rounded=0;whiteSpace=wrap;html=1;" vertex="1" parent="1">
          <mxGeometry x="270" y="710" width="110" height="40" as="geometry" />
        </mxCell>
        <mxCell id="xr4Yp84SexC0bQMcXBKt-133" style="edgeStyle=orthogonalEdgeStyle;rounded=0;orthogonalLoop=1;jettySize=auto;html=1;exitX=0.5;exitY=1;exitDx=0;exitDy=0;entryX=0;entryY=0.5;entryDx=0;entryDy=0;" edge="1" parent="1" source="xr4Yp84SexC0bQMcXBKt-136" target="xr4Yp84SexC0bQMcXBKt-147">
          <mxGeometry relative="1" as="geometry">
            <Array as="points">
              <mxPoint x="150" y="850" />
              <mxPoint x="150" y="1010" />
            </Array>
          </mxGeometry>
        </mxCell>
        <mxCell id="xr4Yp84SexC0bQMcXBKt-134" style="edgeStyle=orthogonalEdgeStyle;rounded=0;orthogonalLoop=1;jettySize=auto;html=1;exitX=0.5;exitY=1;exitDx=0;exitDy=0;entryX=0;entryY=0.5;entryDx=0;entryDy=0;" edge="1" parent="1" source="xr4Yp84SexC0bQMcXBKt-136" target="xr4Yp84SexC0bQMcXBKt-138">
          <mxGeometry relative="1" as="geometry">
            <Array as="points">
              <mxPoint x="150" y="850" />
              <mxPoint x="150" y="950" />
            </Array>
          </mxGeometry>
        </mxCell>
        <mxCell id="xr4Yp84SexC0bQMcXBKt-135" style="edgeStyle=orthogonalEdgeStyle;rounded=0;orthogonalLoop=1;jettySize=auto;html=1;exitX=0.5;exitY=1;exitDx=0;exitDy=0;entryX=0;entryY=0.5;entryDx=0;entryDy=0;" edge="1" parent="1" source="xr4Yp84SexC0bQMcXBKt-136" target="xr4Yp84SexC0bQMcXBKt-137">
          <mxGeometry relative="1" as="geometry">
            <Array as="points">
              <mxPoint x="150" y="850" />
              <mxPoint x="150" y="890" />
            </Array>
          </mxGeometry>
        </mxCell>
        <mxCell id="xr4Yp84SexC0bQMcXBKt-251" style="edgeStyle=orthogonalEdgeStyle;rounded=0;orthogonalLoop=1;jettySize=auto;html=1;exitX=0.5;exitY=1;exitDx=0;exitDy=0;entryX=0;entryY=0.5;entryDx=0;entryDy=0;" edge="1" parent="1" source="xr4Yp84SexC0bQMcXBKt-136" target="xr4Yp84SexC0bQMcXBKt-189">
          <mxGeometry relative="1" as="geometry" />
        </mxCell>
        <mxCell id="xr4Yp84SexC0bQMcXBKt-252" style="edgeStyle=orthogonalEdgeStyle;rounded=0;orthogonalLoop=1;jettySize=auto;html=1;exitX=0.5;exitY=1;exitDx=0;exitDy=0;entryX=0;entryY=0.5;entryDx=0;entryDy=0;" edge="1" parent="1" source="xr4Yp84SexC0bQMcXBKt-136" target="xr4Yp84SexC0bQMcXBKt-190">
          <mxGeometry relative="1" as="geometry" />
        </mxCell>
        <mxCell id="xr4Yp84SexC0bQMcXBKt-253" style="edgeStyle=orthogonalEdgeStyle;rounded=0;orthogonalLoop=1;jettySize=auto;html=1;exitX=0.5;exitY=1;exitDx=0;exitDy=0;entryX=0;entryY=0.5;entryDx=0;entryDy=0;" edge="1" parent="1" source="xr4Yp84SexC0bQMcXBKt-136" target="xr4Yp84SexC0bQMcXBKt-191">
          <mxGeometry relative="1" as="geometry" />
        </mxCell>
        <mxCell id="xr4Yp84SexC0bQMcXBKt-254" style="edgeStyle=orthogonalEdgeStyle;rounded=0;orthogonalLoop=1;jettySize=auto;html=1;exitX=0.5;exitY=1;exitDx=0;exitDy=0;entryX=0;entryY=0.5;entryDx=0;entryDy=0;" edge="1" parent="1" source="xr4Yp84SexC0bQMcXBKt-136" target="xr4Yp84SexC0bQMcXBKt-248">
          <mxGeometry relative="1" as="geometry" />
        </mxCell>
        <mxCell id="xr4Yp84SexC0bQMcXBKt-255" style="edgeStyle=orthogonalEdgeStyle;rounded=0;orthogonalLoop=1;jettySize=auto;html=1;exitX=0.5;exitY=1;exitDx=0;exitDy=0;entryX=0;entryY=0.5;entryDx=0;entryDy=0;" edge="1" parent="1" source="xr4Yp84SexC0bQMcXBKt-136" target="xr4Yp84SexC0bQMcXBKt-249">
          <mxGeometry relative="1" as="geometry" />
        </mxCell>
        <mxCell id="xr4Yp84SexC0bQMcXBKt-256" style="edgeStyle=orthogonalEdgeStyle;rounded=0;orthogonalLoop=1;jettySize=auto;html=1;exitX=0.5;exitY=1;exitDx=0;exitDy=0;entryX=0;entryY=0.5;entryDx=0;entryDy=0;" edge="1" parent="1" source="xr4Yp84SexC0bQMcXBKt-136" target="xr4Yp84SexC0bQMcXBKt-250">
          <mxGeometry relative="1" as="geometry" />
        </mxCell>
        <mxCell id="xr4Yp84SexC0bQMcXBKt-136" value="상품" style="rounded=0;whiteSpace=wrap;html=1;" vertex="1" parent="1">
          <mxGeometry x="120" y="800" width="70" height="50" as="geometry" />
        </mxCell>
        <mxCell id="xr4Yp84SexC0bQMcXBKt-137" value="재고관리" style="rounded=0;whiteSpace=wrap;html=1;" vertex="1" parent="1">
          <mxGeometry x="170" y="870" width="110" height="40" as="geometry" />
        </mxCell>
        <mxCell id="xr4Yp84SexC0bQMcXBKt-138" value="입고관리" style="rounded=0;whiteSpace=wrap;html=1;" vertex="1" parent="1">
          <mxGeometry x="170" y="930" width="110" height="40" as="geometry" />
        </mxCell>
        <mxCell id="xr4Yp84SexC0bQMcXBKt-147" value="예약현황" style="rounded=0;whiteSpace=wrap;html=1;" vertex="1" parent="1">
          <mxGeometry x="170" y="990" width="110" height="40" as="geometry" />
        </mxCell>
        <mxCell id="xr4Yp84SexC0bQMcXBKt-155" style="edgeStyle=orthogonalEdgeStyle;rounded=0;orthogonalLoop=1;jettySize=auto;html=1;exitX=0.5;exitY=1;exitDx=0;exitDy=0;entryX=0;entryY=0.5;entryDx=0;entryDy=0;" edge="1" parent="1" source="xr4Yp84SexC0bQMcXBKt-157" target="xr4Yp84SexC0bQMcXBKt-159">
          <mxGeometry relative="1" as="geometry">
            <Array as="points">
              <mxPoint x="484" y="850" />
              <mxPoint x="484" y="1290" />
            </Array>
          </mxGeometry>
        </mxCell>
        <mxCell id="xr4Yp84SexC0bQMcXBKt-156" style="edgeStyle=orthogonalEdgeStyle;rounded=0;orthogonalLoop=1;jettySize=auto;html=1;exitX=0.5;exitY=1;exitDx=0;exitDy=0;entryX=0;entryY=0.5;entryDx=0;entryDy=0;" edge="1" parent="1" source="xr4Yp84SexC0bQMcXBKt-157" target="xr4Yp84SexC0bQMcXBKt-158">
          <mxGeometry relative="1" as="geometry">
            <Array as="points">
              <mxPoint x="484" y="850" />
              <mxPoint x="484" y="890" />
            </Array>
          </mxGeometry>
        </mxCell>
        <mxCell id="xr4Yp84SexC0bQMcXBKt-258" style="edgeStyle=orthogonalEdgeStyle;rounded=0;orthogonalLoop=1;jettySize=auto;html=1;exitX=0.5;exitY=1;exitDx=0;exitDy=0;entryX=0;entryY=0.5;entryDx=0;entryDy=0;" edge="1" parent="1" source="xr4Yp84SexC0bQMcXBKt-157" target="xr4Yp84SexC0bQMcXBKt-167">
          <mxGeometry relative="1" as="geometry">
            <Array as="points">
              <mxPoint x="484" y="850" />
              <mxPoint x="484" y="940" />
            </Array>
          </mxGeometry>
        </mxCell>
        <mxCell id="xr4Yp84SexC0bQMcXBKt-259" style="edgeStyle=orthogonalEdgeStyle;rounded=0;orthogonalLoop=1;jettySize=auto;html=1;exitX=0.5;exitY=1;exitDx=0;exitDy=0;entryX=0;entryY=0.5;entryDx=0;entryDy=0;" edge="1" parent="1" source="xr4Yp84SexC0bQMcXBKt-157" target="xr4Yp84SexC0bQMcXBKt-166">
          <mxGeometry relative="1" as="geometry">
            <Array as="points">
              <mxPoint x="484" y="850" />
              <mxPoint x="484" y="1000" />
            </Array>
          </mxGeometry>
        </mxCell>
        <mxCell id="xr4Yp84SexC0bQMcXBKt-260" style="edgeStyle=orthogonalEdgeStyle;rounded=0;orthogonalLoop=1;jettySize=auto;html=1;exitX=0.5;exitY=1;exitDx=0;exitDy=0;entryX=0;entryY=0.5;entryDx=0;entryDy=0;" edge="1" parent="1" source="xr4Yp84SexC0bQMcXBKt-157" target="xr4Yp84SexC0bQMcXBKt-165">
          <mxGeometry relative="1" as="geometry">
            <Array as="points">
              <mxPoint x="484" y="850" />
              <mxPoint x="484" y="1060" />
            </Array>
          </mxGeometry>
        </mxCell>
        <mxCell id="xr4Yp84SexC0bQMcXBKt-261" style="edgeStyle=orthogonalEdgeStyle;rounded=0;orthogonalLoop=1;jettySize=auto;html=1;exitX=0.5;exitY=1;exitDx=0;exitDy=0;entryX=0;entryY=0.5;entryDx=0;entryDy=0;" edge="1" parent="1" source="xr4Yp84SexC0bQMcXBKt-157" target="xr4Yp84SexC0bQMcXBKt-168">
          <mxGeometry relative="1" as="geometry">
            <Array as="points">
              <mxPoint x="484" y="850" />
              <mxPoint x="484" y="1120" />
            </Array>
          </mxGeometry>
        </mxCell>
        <mxCell id="xr4Yp84SexC0bQMcXBKt-262" style="edgeStyle=orthogonalEdgeStyle;rounded=0;orthogonalLoop=1;jettySize=auto;html=1;exitX=0.5;exitY=1;exitDx=0;exitDy=0;entryX=0;entryY=0.5;entryDx=0;entryDy=0;" edge="1" parent="1" source="xr4Yp84SexC0bQMcXBKt-157" target="xr4Yp84SexC0bQMcXBKt-169">
          <mxGeometry relative="1" as="geometry">
            <Array as="points">
              <mxPoint x="484" y="850" />
              <mxPoint x="484" y="1180" />
            </Array>
          </mxGeometry>
        </mxCell>
        <mxCell id="xr4Yp84SexC0bQMcXBKt-157" value="회원" style="rounded=0;whiteSpace=wrap;html=1;" vertex="1" parent="1">
          <mxGeometry x="454" y="800" width="70" height="50" as="geometry" />
        </mxCell>
        <mxCell id="xr4Yp84SexC0bQMcXBKt-158" value="예약현황" style="rounded=0;whiteSpace=wrap;html=1;" vertex="1" parent="1">
          <mxGeometry x="504" y="870" width="110" height="40" as="geometry" />
        </mxCell>
        <mxCell id="xr4Yp84SexC0bQMcXBKt-159" value="샵 공지사항" style="rounded=0;whiteSpace=wrap;html=1;" vertex="1" parent="1">
          <mxGeometry x="504" y="1270" width="110" height="40" as="geometry" />
        </mxCell>
        <mxCell id="xr4Yp84SexC0bQMcXBKt-165" value="구매이력" style="rounded=0;whiteSpace=wrap;html=1;" vertex="1" parent="1">
          <mxGeometry x="504" y="1040" width="110" height="40" as="geometry" />
        </mxCell>
        <mxCell id="xr4Yp84SexC0bQMcXBKt-166" value="회원목록" style="rounded=0;whiteSpace=wrap;html=1;" vertex="1" parent="1">
          <mxGeometry x="504" y="980" width="110" height="40" as="geometry" />
        </mxCell>
        <mxCell id="xr4Yp84SexC0bQMcXBKt-167" value="쿠폰발행" style="rounded=0;whiteSpace=wrap;html=1;" vertex="1" parent="1">
          <mxGeometry x="504" y="920" width="110" height="40" as="geometry" />
        </mxCell>
        <mxCell id="xr4Yp84SexC0bQMcXBKt-168" value="배송현황" style="rounded=0;whiteSpace=wrap;html=1;" vertex="1" parent="1">
          <mxGeometry x="504" y="1100" width="110" height="40" as="geometry" />
        </mxCell>
        <mxCell id="xr4Yp84SexC0bQMcXBKt-169" value="QnA" style="rounded=0;whiteSpace=wrap;html=1;" vertex="1" parent="1">
          <mxGeometry x="504" y="1160" width="110" height="40" as="geometry" />
        </mxCell>
        <mxCell id="xr4Yp84SexC0bQMcXBKt-170" value="* 게시판 공지시항은 게시판에 대한 공지사항을 말한다.&lt;br&gt;* 샵 공지사항은 쇼핑몰 전체에 대한 공지사항을 말한다." style="text;html=1;strokeColor=none;fillColor=none;align=left;verticalAlign=top;whiteSpace=wrap;rounded=0;" vertex="1" parent="1">
          <mxGeometry x="480" y="1330" width="320" height="60" as="geometry" />
        </mxCell>
        <mxCell id="xr4Yp84SexC0bQMcXBKt-171" style="edgeStyle=orthogonalEdgeStyle;rounded=0;orthogonalLoop=1;jettySize=auto;html=1;exitX=0.5;exitY=1;exitDx=0;exitDy=0;entryX=0;entryY=0.5;entryDx=0;entryDy=0;" edge="1" parent="1" source="xr4Yp84SexC0bQMcXBKt-173" target="xr4Yp84SexC0bQMcXBKt-174">
          <mxGeometry relative="1" as="geometry">
            <Array as="points">
              <mxPoint x="810" y="850" />
              <mxPoint x="810" y="1190" />
            </Array>
          </mxGeometry>
        </mxCell>
        <mxCell id="xr4Yp84SexC0bQMcXBKt-172" style="edgeStyle=orthogonalEdgeStyle;rounded=0;orthogonalLoop=1;jettySize=auto;html=1;exitX=0.5;exitY=1;exitDx=0;exitDy=0;entryX=0;entryY=0.5;entryDx=0;entryDy=0;" edge="1" parent="1" source="xr4Yp84SexC0bQMcXBKt-173" target="xr4Yp84SexC0bQMcXBKt-186">
          <mxGeometry relative="1" as="geometry">
            <Array as="points">
              <mxPoint x="810" y="850" />
              <mxPoint x="810" y="1250" />
            </Array>
          </mxGeometry>
        </mxCell>
        <mxCell id="xr4Yp84SexC0bQMcXBKt-173" value="판매" style="rounded=0;whiteSpace=wrap;html=1;" vertex="1" parent="1">
          <mxGeometry x="780" y="800" width="70" height="50" as="geometry" />
        </mxCell>
        <mxCell id="xr4Yp84SexC0bQMcXBKt-174" value="배송지 선택" style="rounded=0;whiteSpace=wrap;html=1;" vertex="1" parent="1">
          <mxGeometry x="830" y="1170" width="110" height="40" as="geometry" />
        </mxCell>
        <mxCell id="xr4Yp84SexC0bQMcXBKt-175" style="edgeStyle=orthogonalEdgeStyle;rounded=0;orthogonalLoop=1;jettySize=auto;html=1;exitX=1;exitY=0.5;exitDx=0;exitDy=0;entryX=0;entryY=0.5;entryDx=0;entryDy=0;" edge="1" parent="1" target="xr4Yp84SexC0bQMcXBKt-182">
          <mxGeometry relative="1" as="geometry">
            <mxPoint x="800" y="890" as="sourcePoint" />
          </mxGeometry>
        </mxCell>
        <mxCell id="xr4Yp84SexC0bQMcXBKt-176" style="edgeStyle=orthogonalEdgeStyle;rounded=0;orthogonalLoop=1;jettySize=auto;html=1;exitX=1;exitY=0.5;exitDx=0;exitDy=0;entryX=0;entryY=0.5;entryDx=0;entryDy=0;" edge="1" parent="1" target="xr4Yp84SexC0bQMcXBKt-181">
          <mxGeometry relative="1" as="geometry">
            <Array as="points">
              <mxPoint x="810" y="890" />
              <mxPoint x="810" y="950" />
            </Array>
            <mxPoint x="800" y="890" as="sourcePoint" />
          </mxGeometry>
        </mxCell>
        <mxCell id="xr4Yp84SexC0bQMcXBKt-177" style="edgeStyle=orthogonalEdgeStyle;rounded=0;orthogonalLoop=1;jettySize=auto;html=1;exitX=1;exitY=0.5;exitDx=0;exitDy=0;entryX=0;entryY=0.5;entryDx=0;entryDy=0;" edge="1" parent="1" target="xr4Yp84SexC0bQMcXBKt-180">
          <mxGeometry relative="1" as="geometry">
            <Array as="points">
              <mxPoint x="810" y="890" />
              <mxPoint x="810" y="1010" />
            </Array>
            <mxPoint x="800" y="890" as="sourcePoint" />
          </mxGeometry>
        </mxCell>
        <mxCell id="xr4Yp84SexC0bQMcXBKt-178" style="edgeStyle=orthogonalEdgeStyle;rounded=0;orthogonalLoop=1;jettySize=auto;html=1;entryX=0;entryY=0.5;entryDx=0;entryDy=0;" edge="1" parent="1" target="xr4Yp84SexC0bQMcXBKt-183">
          <mxGeometry relative="1" as="geometry">
            <Array as="points">
              <mxPoint x="810" y="890" />
              <mxPoint x="810" y="1070" />
            </Array>
            <mxPoint x="810" y="850" as="sourcePoint" />
          </mxGeometry>
        </mxCell>
        <mxCell id="xr4Yp84SexC0bQMcXBKt-179" style="edgeStyle=orthogonalEdgeStyle;rounded=0;orthogonalLoop=1;jettySize=auto;html=1;exitX=0.5;exitY=1;exitDx=0;exitDy=0;entryX=0;entryY=0.5;entryDx=0;entryDy=0;" edge="1" parent="1" source="xr4Yp84SexC0bQMcXBKt-173" target="xr4Yp84SexC0bQMcXBKt-184">
          <mxGeometry relative="1" as="geometry">
            <Array as="points">
              <mxPoint x="810" y="850" />
              <mxPoint x="810" y="1130" />
            </Array>
            <mxPoint x="800" y="890" as="sourcePoint" />
          </mxGeometry>
        </mxCell>
        <mxCell id="xr4Yp84SexC0bQMcXBKt-180" value="비회원 회원 구매" style="rounded=0;whiteSpace=wrap;html=1;" vertex="1" parent="1">
          <mxGeometry x="830" y="990" width="110" height="40" as="geometry" />
        </mxCell>
        <mxCell id="xr4Yp84SexC0bQMcXBKt-181" value="배송관련 안내문자발송" style="rounded=0;whiteSpace=wrap;html=1;" vertex="1" parent="1">
          <mxGeometry x="830" y="930" width="110" height="40" as="geometry" />
        </mxCell>
        <mxCell id="xr4Yp84SexC0bQMcXBKt-182" value="환불 교환 취소 처리" style="rounded=0;whiteSpace=wrap;html=1;" vertex="1" parent="1">
          <mxGeometry x="830" y="870" width="110" height="40" as="geometry" />
        </mxCell>
        <mxCell id="xr4Yp84SexC0bQMcXBKt-183" value="결제수단" style="rounded=0;whiteSpace=wrap;html=1;" vertex="1" parent="1">
          <mxGeometry x="830" y="1050" width="110" height="40" as="geometry" />
        </mxCell>
        <mxCell id="xr4Yp84SexC0bQMcXBKt-184" value="point 쿠폰 사용여부" style="rounded=0;whiteSpace=wrap;html=1;" vertex="1" parent="1">
          <mxGeometry x="830" y="1110" width="110" height="40" as="geometry" />
        </mxCell>
        <mxCell id="xr4Yp84SexC0bQMcXBKt-185" style="edgeStyle=orthogonalEdgeStyle;rounded=0;orthogonalLoop=1;jettySize=auto;html=1;exitX=0.5;exitY=1;exitDx=0;exitDy=0;" edge="1" parent="1" source="xr4Yp84SexC0bQMcXBKt-170" target="xr4Yp84SexC0bQMcXBKt-170">
          <mxGeometry relative="1" as="geometry" />
        </mxCell>
        <mxCell id="xr4Yp84SexC0bQMcXBKt-186" value="결제확인페이지" style="rounded=0;whiteSpace=wrap;html=1;" vertex="1" parent="1">
          <mxGeometry x="830" y="1230" width="110" height="40" as="geometry" />
        </mxCell>
        <mxCell id="xr4Yp84SexC0bQMcXBKt-187" style="edgeStyle=orthogonalEdgeStyle;rounded=0;orthogonalLoop=1;jettySize=auto;html=1;exitX=1;exitY=0.5;exitDx=0;exitDy=0;entryX=0;entryY=0.5;entryDx=0;entryDy=0;" edge="1" parent="1">
          <mxGeometry relative="1" as="geometry">
            <mxPoint x="800" y="950" as="sourcePoint" />
            <mxPoint x="830" y="950" as="targetPoint" />
          </mxGeometry>
        </mxCell>
        <mxCell id="xr4Yp84SexC0bQMcXBKt-189" value="카테고리 분류" style="rounded=0;whiteSpace=wrap;html=1;" vertex="1" parent="1">
          <mxGeometry x="170" y="1050" width="110" height="40" as="geometry" />
        </mxCell>
        <mxCell id="xr4Yp84SexC0bQMcXBKt-190" value="가격설정" style="rounded=0;whiteSpace=wrap;html=1;" vertex="1" parent="1">
          <mxGeometry x="170" y="1110" width="110" height="40" as="geometry" />
        </mxCell>
        <mxCell id="xr4Yp84SexC0bQMcXBKt-191" value="리뷰관리" style="rounded=0;whiteSpace=wrap;html=1;" vertex="1" parent="1">
          <mxGeometry x="170" y="1170" width="110" height="40" as="geometry" />
        </mxCell>
        <mxCell id="xr4Yp84SexC0bQMcXBKt-248" value="게시판 관리" style="rounded=0;whiteSpace=wrap;html=1;" vertex="1" parent="1">
          <mxGeometry x="170" y="1230" width="110" height="40" as="geometry" />
        </mxCell>
        <mxCell id="xr4Yp84SexC0bQMcXBKt-249" value="이벤트 상품관리" style="rounded=0;whiteSpace=wrap;html=1;" vertex="1" parent="1">
          <mxGeometry x="170" y="1290" width="110" height="40" as="geometry" />
        </mxCell>
        <mxCell id="xr4Yp84SexC0bQMcXBKt-250" value="고객센터" style="rounded=0;whiteSpace=wrap;html=1;" vertex="1" parent="1">
          <mxGeometry x="170" y="1350" width="110" height="40" as="geometry" />
        </mxCell>
      </root>
    </mxGraphModel>
  </diagram>
</mxfile>
